<mxfile host="65bd71144e">
    <diagram id="J4-7SzLnzizalOWwm1h7" name="Page-1">
        <mxGraphModel dx="1155" dy="779" grid="0" gridSize="10" guides="1" tooltips="1" connect="1" arrows="1" fold="1" page="1" pageScale="1" pageWidth="827" pageHeight="1169" math="0" shadow="0">
            <root>
                <mxCell id="0"/>
                <mxCell id="1" parent="0"/>
                <mxCell id="2" value="" style="shape=image;verticalLabelPosition=bottom;labelBackgroundColor=default;verticalAlign=top;aspect=fixed;imageAspect=0;image=data:image/png,iVBORw0KGgoAAAANSUhEUgAAAUAAAAIQCAYAAADw9rfAAAAAAXNSR0IArs4c6QAAAARnQU1BAACxjwv8YQUAAAAJcEhZcwAAEnQAABJ0Ad5mH3gAAEm3SURBVHhe7d0LXFzlgTf+X7gMlwyQQIxOQiQmmVzA1GRiN5j3b2i3JF1L+66kf4vpClpf7IWmG9h1ie8npauyfizULbibZftXXqvg1qCr0xurG1i3xM+rpNUxaiAXkigGMrlBSBhIGBjyf55zCQPhMhAyA5zf9+PJOec5Z54ZGOfH85xz5jmzFi6wXAERkQEFaXMiIsNhABKRYTEAiciwGIBEZFgMQCIyLAYgERkWA5CIDIsBSESGxQAkIsNiABKRYTEAiciwGIBEZFgMQCIyLAYgERkWA5CIDIsBSESGxQAkIsNiABKRYTEAiciwGIBEZFgMQCIyLAYgERkWA5CIDIsBSESGxQAkIsNiABKRYTEAiciwZi1cYLmiLU97QaZwhIcEi6UZ8yMRXZeQkFD09bnR3X1JKyFvMyIAr4ifwBMaitNZOZglVuZ2nsfqU58hursL4WFh2l5ExrRs2RK8Yf8NXC6XVkK6GRGA/f396JsdhbNbs7USwFr/NqLazmhrRMa1dMkSHD12FGfOnNVKSDftjwHK1h8RjY2flWvNgJMg6rt6he8u0Rj4GRmKZ4GJyLAYgERkWAxAIjIsBiARGRYDkIgMiwFIRIbFACQiw5r23wSR1//JqTfSjHPffkQrHf83QVyWhdrS9TE7W7UloqlB/ybI6dNnMGvWLK2UJAagxvlnG5Tpelj++K4yEU0lDMCRsQusm4w/A7zQnmhaYQASkWExAInIsHgMUOP84gY41w9/DPDxtV/AYvNsZflTlwtPfPiJsjyUZd+7sPxptGOAFuRX7kbare2ofyodO/ZoxXc+id3/mALLpQZU/kUOyrVi2+O7UfLlODS8tAl1q6uRYwMcu9KQ95q2wxSRUTLCa7uvBNXbbGh7MwVZqEDdPQnahqGaUf0mkDba9pQsNCvPY9bKBI8L7UfrUfFEIew89zQiHgMcGVuAYyhdvw6fidB78ehxZWp2dSllE+NE7TGnmMfCYrOoRYIldbGIRiEiAUn3KUWK1ARZ6sRnL6jr09pHe1G7p1aZ6j93iwI3mvep67V79qJhrO1KJdJAeX2z+E2uSEXOEznq728ayyy2o7qmAvnaOvkHA3AMc0ymYaeJcrzbjHYxtySkqQVC+jLR8rnkFh9tMyxJoimlyMZi+ak+9Rlq1YLp7c1yFD5VqEyOc2rAtf1JXS98qly0AMfYrlQiDZTv+E4B9p4CTEtsSNe2TlcWSyzME//fiiaIAagboWfwmWjx7W8/j183n1AmuSzLhg1BX3oXexzi8eJDuzBJ+9Bm4/Z48bH+1IGmS+KDsDRVbc1stsISAbQf3wuHsp8m/klUvFWHujoxvSVaDF69dsu9Baj4bY267e0aVD+Xi2RlSz4qZFnlk8jZZb+6fffTGSO0nGzIfrpCtEi05xHTQF1TiRNuj7Y4jPxK+dp3o+Tp3aiRP0NJhihNRk7JblS/rf1s1btRtHXgt5D8/RLsvvr7FdvEvnK54jG5NQMl1fIxJWJJI7v5V+uWLEjf6fW7q6lG+XbtN7cwFbnPVaNGf+6a3SjcrNaZdqvcIQFpsryS7UB/YQDqRjgS+iXLzcrxv9yklcokg08vu4ZPR1Or0CC7eDEW2O4Uq1rQNTfswIEWsX7TYsi2oeWLCaKj7MJnDu/2nxm2ry2H8/VyVO4TH37RZU57OEfdtCEfRT9MFR+hJtifLUT5u20wrUjHjqcHWpq49S5s7K1D6fPVaHKZYNlwP3I3a9sGscIqQtnxaqnS+trbKtqmoq6cx0braIrXtk37YOvTNpsovVGsSNtegGR5/frxA7CrhcOwiD8wDSj6dgrS8vYio6QAGbY4dL4rWpzP2tHgsSD54ULkyHruKcKOrTZYPM3Y+3Ipymvbsfz20X7mayU/VoSczaJFf9SOUvm7O2uCdcsOFN0DpG77IdJXmNEmn1tsqxXvtzlmLyqfKRS/Y/loJ/bKFu+/jvzT0ORiAI6htOEQ1sTORYfbrbT8Put04Q/O0/j7tauVkyMTUd0sjwNaYBENA9sGGXTNOCL+n7cfbb56HDD9NvHBu9SMhiEnPJr/Kw87nq9EeX6t0mKExaq0RtK/mYIEUzvq/zUHpW/UovLH5XCIvnZsUupA97Ddgcq8UthfLkaBCFD1WKS6abAq7MjMQsHzdtTuqUSB/YCIYiDu5o3q5mF5H7PTpn3NonSy6UFbjvwtSTC3N6DqhVIRHSNph6OyELVKwGQiTZ5EaapG3o8rUftGKXL2NInmuBXJW8XvMPV28Rtxo+FV9WevfCYHhf935JqvlY4M8X6a2utR9gPxe5a/uxcd4hXE4vbUwZ10V3MlCr+Th+J3nXD8dy06lZasG53y9/aueE3kFwzAMchurwzBL91yM+69VTSLhMc//Fg5EyzLJ8JZ+5nygU1IykHqUhF08jif+ICq5WYstuXAKhsezs+unhFWudCmnESROtHj1f2zzpdtrVjRAtFbYKJ1FCuKgsXnW9lDcLVdPZbm9IwWTVbRjStDxWuiu/aW6FL71JLzPmanTX9quwEBqAetHeWP5+H+9ByUjfrlm0606Wfb77MgTs6t6ditt1LvsyqbECKKY+VP6cRnL6lFkuPyeH4CK+JixCw2Gfl6/TuTxbsiBJlQu6sCtcddsNydjaLn5GGFDCTJbRQwDMAxLJodia1LFyM2LEyZkufPU8rksUDZKpyQ9/eiWbTOTLdshE10va4e53v/QzgviM9PwkZYxGfR2ez76Y+mM7KNJlqAu4aE0DOV2Kvu4jPbTwpF1zgJpk/tKPu56Ba+4FBagFODHrSlqPxvxygtv2G85kSbmLlFC3DQ70hMZaIF3tyhtHNh8ToTnxYbpS1J4v2Wf3SCw3C1VATngCa0ifcPZ0QLcEj9RZXiXWi1i1ZfGlK+Wwx7o0s5rJD9v4ZtgpOfMADH0Nt/Ba7ePtQ6nag56RStrlGOuvusFg55JiRWdIOD3XA26UFnR0Or+JAtFOUizJrfHXT6Y1T2+iMipGJh+9YW2ObLEgts92Rjy7pxhoSQEKN9vN096DQvRvpXb7+Bx/L8qRYHjrtFjzcFWRsXKyEWJf7Y3L91IxIOi47/ftllF13szHIUPJKJ7J3lyF6rtN80dvGHRswirEgryUX6A/ko3+rdOrajvkm8r/NtuP9/2sQ7IIjltIe2INnhREZxBcofzURqQg/a2jqVR1zVJ/+Jw/JHs1HwmHZcl244BuAYTl26hH9uPIwXjhzDL5vkdBwnurq1rRNX9Yl2fMzTjANe1/mVNzSrC67P4NC7br54LQ+FrzjQFpmEtEcKULAzG5uWinDVqhsP++s1aBItGdlVK9iWhqjjzVOoBXg9HCj+cZnohoqfbUMmcncWIHfrOsR1nRJtN+El0RLcI35WsxWpD2QjY40bNfsG/wLLXhAheMGEWFs6ch++C+6Pmwb9bqr+thBVjjaYEtNEgIr34eFNWO5xQtYiW4eWr4nfqSjP3hAFp6MKpU+qf+Qq99TD6TbD+g0RkMt4PYy/8JsgmtG+CeKrsb8JQtPOY+o3WJrlt1l+qpVNM/wmyMjYAiQiw2IAEpFhsQus4YjQNFOxCzwyBiDRDMcAHBm7wERkWAxAIjIsBiARGRYDkIgMiwFIRIbFAPS3hRkoea0G1buy1e+KTjU38vVdM3goUWAxAP3NkoC4OSaYZsdOzQCc6q+PaBIxAP3t/WJkbUrBpu8UDx7qfqqY6q+PaBIxAP1Ovz+Hdt+HYe8ToW7yJm89WVdXjfLicvV+FsrjR7n/hLQiHQW/9Kr7rTKoAy2N9jjv15eDcvlYexFS1Y2CVvarAsiR7Ea+D4m+TZQr28RzfNF7bD2iwGMABtjw94nQNl7DDOvKTuz+QQpSMotHvf+EcgOfn+UidQngfN+O8mcrsdfZo4wOPfrjvJWhrtENxC7HJj2Ut9lgDQaa9pXDMdp9SBbmoFBui2hHw+/KUfrKBzAlWWfIuII0UzAAp5CB+0RoBcNo2pOHysNyaYz7T2zbBJsI0vZ3CpGVX4rKN8pRIOouHcd9K6TKPzXBLbYlbFBHLs5ZYwU8TTjw787R70OyNRlWkbZO8fw5z1TC/vxPkPV6gzoGItEUwQAMsPHdJ8KFztPa4hj3n1BuqiT2/+yjelniZfTHXeOlaiXULKvuFV3eHNhEi9LdWIfSVlHTKPchWWeRd99wwXnQ60hiZw8DkKYUBmCgTfg+EaPff8LulHe/MIvgGlrXGPetuEY19jaJBLxlOdIek93fdjiqK5Uto92H5NV2OeS7GXHypk8ay4IodoFpSmEABtio94kY1ej3n8Ar9WgSzS3LlwpRUZyLzC3ZKPxlCXLHetwwql/9BE6xZ/LdYu/2I9j7plo+2n1IPv7PBuVeJAlfKUHJ9kxkbhfzzdod2IimCAZggI12n4ixjHb/CbSWoeCndjSIhmDCetGqFCGULHqlsl046uOG8/6v0SC6vGazGc4Pq67eWnPU+5C8X4hSsc3pEaEowjf7K3FoqJ1Kd5cj4niARDMexwMcGVuARGRYDEAiMiwGIBEZFgOQiAyLAUhEhsUAJCLDYgASkWExAInIsBiARGRYDEAiMiwGIBEZFgOQiAyLAUg0w/X3e7QlGmrGjAbTFxqGsw/mYJZYntt5HqtPfYbo7i6Eh4VpexIZjwy/5cuteP0NO1yuLo4GM8QMCEDlXyUEg0zhCA8JlmuySDOtf7xp6c5167Ql4P0PPtCWyD+0gBMzdWkW+vp60dvbqywz/wab9gEoyfDT5/oyBc5dycm4665kvPdePd6rH3pPEvIn2eLTW31s/V1rhgSg8q+yTIGXvH49kpPXo75+H+r37dNKKbDY+hvOjDgJIt9Y9a8b32GiwdQWIMNveDPqLLAehJwCO139O8T3YwpM2ntBw+JlMERkWAxAIjIsBiARGRYDkIgMiwFIRIbFACQiw2IAEpFhMQCJyLAYgERkWAxAIjIsBiARGRYDkIgMiwFIRIbFACQiw2IA0qQYOgzTSGVEUwkDkK6Ld8BFR0dh8eLFiI2NxeXLlxEn5reJdVnuvR/RVDEjhsQn/9ODTM5XrlyJpUuXIDI8HOcvXESPCL/evl6EhoQiLDwMc2Ni0C3Kjh07jkOHDg26hwtRIDEAadz0llx8/EKss9nQ1d2N1pYWnGtr1/a4VlxcrNg/HrMjI/GBw4GWllbexIoCjgFIPtNbfUFBQUhMTELiyuVoPHwYZ06fUcp9Mf/m+UhcsQKNh46gsbEB/f39SjmDkAKBAUg+kwGoh9/Spbfho/0fofvSJW2r7yIjInDHmjtEl/jTqyHIAKRA4EkQ8slAtzceiatWjBp+V6JvgTv5IWU+HPk4+XhZj6xPr5vI3xiANCY9oGTrz2ZbK7qvh0Zt+fXLAFz/kDIfiXy8rEfWJ+tlCFIgMADJJzKcVqxcge6urnEd8xuNrEfWJ+tl+FEgMABpVDKY1CkIS5cswYmWFm3L5GgR9cl6Zf36cxH5CwOQxiRDKTrajIjwcLSNcqnLRMhLZ2S9sn6GH/kbA5DGJINpXtw8dHR0aCWTq6PjAuJE/QxA8rfg6Kiox7VlokFkIKlTEBbdGo8gMW9ra9O2qmd7+29aqsy9p/6blsGTsB7B55qAENM120WNmNXj0moBYmJixJPJY4JnxRovhyH/4XWANCI9AIODg7F2zRqEhIYoX2fTyTO98nKX8TLVvwjTvhe1NShfo+vr7cOH+/fD4/HwGyLkNwxAGpF3AK7+wmqYI2fj8JEj2latBSimofrnLUNPyjaE1e1C0LmjWumAoIunMEtMuhXLl6Oruwsff/wJA5D8iscAySfycpWIyAhtTSVDLLhl/zWTHnpyPtx27/CTIiLDlfqJ/I0BSD45f/485shjdTfAnJg5aBf1E/kbA5DGJHujFy924nJPD+bFxWqlk0OOEiPrlfWz10v+xgCkEQ0ci1Pnn39+AvGL4tWNk2SRqE/W6/086jLRjccApDHJQJIjthw9ehRms1kZ0moyyHpkfbJejghDgcAApDGpAXgFfX19aGhoROLKlcqQViORZ3nlpS5yPhL5eFmPrE/WK+tnAJK/8TIYGpO8FEaO2BISEoLQ0FAkJSZiwcIF2P/h/gmPB7hm7RqcbD2JhsZG9Pb2aiHIViD5F78JQmOSAagtKf+2t59HeHg4kpIS0X35ErrGcQmL7PauueMOnGhpRePBQyL4euHxyOBTR4Ym8ie2AMkneitQbwmGhIRi0aKFWLVqFVwuF06cODHqQAny7HH8okXKMb+DBw+K/VuV8NNbfmz9USAwAMkneitwcAiq0zLrMsQvWACTyYSOCxeUW2LKbq3sLoeHR2BOTDTcbjdaTp7E0aajSujpkx5+EgOQ/I0BSD7zDkE5QEJISLDyNbmgoGBlWd7/d+6cubCKQLRYLDjpdKJJBF5Hx3nlOr++Po8IO4/ydTe5LLu9DD8KJJ4FJp/pIaV2V/uVFpxs6fX2upUWnjw2eOz4p2hrb1dafu1iflysy3K5Xe6nn/Bg+NFUwACkcZFhJSe966q25vqUgOvp6RHzHiXkPB41HOW6Wu5W9pP764/V6yIKFAYgTchwQeg9jVTG4KOphAFIE6YHmT7poaeH3NB174loKmAA0nUbGm6jTURTCQOQiAyLAUhEhsUAJCLDYgASkWExAInIsBiARGRYDEAiMiwGIBEZFgOQiAyLAUjXbftf/wjf/973sHTpEq1kMFkut8v91q5do5USBR4DkK6bHOsvLMyEr6elYePddytjA0pyLtdludwu92tpaVG2EU0FHBCVrpsMt02bNmHpErUF2NXVjdmzI6/OpWPHj6OmpgY9PW5lnWgqYADSpElctQopKXfDZArTSqCMB1hX9w4aDx7USoimDgYgTaro6Gh84+tpmDdvHlpbWrGntlZ0fS9qW4mmlhkVgKaQcISY5PEnZnqgLbdacaSpSVujQJF37+vrc6O7e/z3bzaCGRGAcpg5U5AJD39hh4i+K7h45SxaQg+j+8pFhIcNdMeIjGjZsiV4w/4b5falNNiMCEA54rA5NAaZt+dqJcA77b9Dm9uprREZlzw5dfTYUZw5c1YrId20vwyGgwwT+YaflWvNgOsA1XeVw60TjYWfkaF4ITQRGRYDkIgMiwFIRIbFACQiw2IAEpFhMQCJyLAYgERkWAxAIjIsBiARGRYDkIgMiwE4jMuXe7Sl4cmv3fW4ObIx0XTHABxCjpvm7u1VQs7j8aDT1TVokmWSHNqdIUg0vU374bBkUMlpdkg0slbnaaUTGw5LBp9s/UWZZ2PWrFnKcm9fL0KCQ5TtfZ4+hIaEIjw8THlOGYhy2RQaqmwfXQZKqnNgM2urQ7gcZUjLq9LWbjQL0ncWIfsrCTAHA81vpiDrp9qm6WCh+F2WZmP56SpkbyvHjRj0LKOkGjlD3iz3hWYc2GtH2TN2TKehXvXhsE6fPqP8f00D2AL0Iv/nkGMLymnALGUMDfWvxMD/PNfuN5Ym1NfWonaPnBrQLovaG7T1WtT80Y8fqc25yNosws/VAPuzBSit1MqnC0sC4uaYYJodK6L8RnKjeZ/2nu1rQFtwAmzfyEXZL/ORrO0xukwUvVaNGrE/TU1sAQ4hu7WXLl1GdJRZCcShdzGTd0CTz3ex04WIiHCEmUzalvHIR0VdGhI+r0ZKZrFW5kf3laB6mw3wa6tzelFbgOJXtCsNea9phSL28isLkXar+HP2Whayd431/1eA32cNW4AjYwAOo7dPdnXVbu9IfNlnZNd+MPQPXNM+Jyx3WmFuldsakP9cNlKWxSpdVXjccO4rR97/rhLdPr2OOlRdWI2M1bFDtgPWB4tQ+K1kWLSenKuxCmnNyai7J0EtUDSjOiULxRtyUPSDNNgWmqHcVsXtQvMfyrHjKbtS13Cvr+xcihoSew7Acrd4ngjxsFP1KP+JA7Yns5F8i/jj4HGh6TeFyH62Xnm2QR6rUF6Ldxc8v7JOBIz2mmBFZnEh7r/Tov38LjS8moacXwz5/V0NdDsc89Kw8dZrn9dybwGKHk5FQoxaT9P74udYbx3xj8DwAShsLoJ9ZzLMjZXY9INy2B4uQu69NlGv9ofwQhPsP81G6UL1NXl3opWf86N8lD+cAut8bcslJ+pfysOOVyb2/6ovGIAjYxd4GEODTQasbBl6TyHB8hM52cywruzE7h+kaMGYhMUxTtS9UIjCZ+1ocJlg2ZCF/PvUvRW33oWNvXUofb4aTcr2+5G7WW7IwY4HRSiJrrf92UKUvuGAO1h86OxlKHylAfLuEDIQC58qg10eU3ssQwSWG03/VanU1dBhQsJmEYqPihS4aujrU8tsd8bB8XI5qg+7YLolWbSMspDQXIVy8Zzt8jH3ZInO4ARs24Hs9aKTe9SO0qdKYf/IDdMcbdswzHdsQsKhCpS+XA+nRzzvX2aL34KwMAeFPxThF9GOht+Vo/SVD2BKEiGuPGqc9rShU8xMZvEHR7CuFK/v4yrx+gpR/o4T7hgr0n+QD8u7lSh6qk49PtlaJ37PhSizi+WkxTCfrkO5WC99Q7wPERYkP5CPDLkf+R0D0AeytSfP/uqtTbksy26Epj15qDysrYg2UE5GDopfrkXtG6XIebdZlJkRt1Tdqmh3oDJPhMPLxSgQrTMgFhbvzJJ621H/bB5ynqgEDtejtk27zOdyG2r31KNpq2j5iZaR851C5DxVrtSVkysC1SNC8Iv3wru6wa9P1fSHAvEaK1H83AfKB97U/gGK88tRKZ7zPfmSI8zXfazOfa4epXk5KBjteOXxGtFirYT9+R2wHxARH2yBVf6x2JoMq2igKT/fM3L7T5D1egMm4xx+VX4Wsn4sfmd7alH5Yzvk0yLWgo2tDuzd41KfQ7Q45XHEevl7eyYH928rRqVYtz+bg7rPRZk5Dt5tcvIfBuCU4kLnaW1RWpiKnOJy7P5tDWpq6oZ0XTWuNlRri07RBR5QhvJXHXAGixbJoyXY/dZu5KYO3+ZJt8SJf11wHnSoBVKrE53yTormKNER1Q15fQpRdlLrvr2vfeBF91mvqbnjOu5EtqscVQ4nTMvSkV+yGzVVuRjhR1C4Op1qi2uIYX++zp6JBeB9Fii1nZPJLlqAWwpQVmlH9VviPXp75LP8OstXRKv6ud3a/rK7r22ggGAA+iA4KAgholscJOZyksuy7EbL/N87kCG6gK69FSj6WQHy9qgfOl/V/yIP9//F/cj7heiKidZQ8ta8Ybuidmeb+Fe00lZ5tfUWWhAVIebtTuxVSyaf1og2hevPa0HYoCML9SjLux+bMvNQJrqXEN3rrB+NvzNd3y47rbLlPNAOtSyIGn8XWPxBKkiXx/WccLxWBdxZgMLtqUgyHYH9uSIUiZagY9S8z0TB32UgeaELdS+L/QvzUCtbgBQwDEAfBAcHK9f6eU+y7EazzNYOrPeKT9X8ZOSsH09HKR9lvypC9pYkxPa0wzVac+cV0Q0W2y13i9bMzmykP5CLkp+lwRrsRtO+ymFbVZPiY6dyOZDli7koeCAd2cUl2LhQ3aR4tAy7i8XrSYqF+6zWupwA5382KD9DwldKULI9E5nbxfzrA+3akZkQ98UCFOwUk2iJ218sQOpCN5rfLEXBu2LzrbGIUvbrQY8rCovvTcPtw6Vq7HLkP1KA/O9bYJZ/VAR3t/i51+UgmS3AgGIAjoN+/M97kmU3SuWeejgvmUU3SwbE7XAeGk8UOdFjtokPu/jwbk9HgqcZtb8oxLCH0FrLUPDTKjjaTUjanIncR9Jhi2kTrZwiFIx5qcd12FOK3e864Y5IQOojuciwHIGjVdsmne1B1FrxekQA5f6lCP/jtSh7egIXLb5fiNJXHHB6LLBtyUb2V+LQ8B8O0SkW+keLVRMS1qcidbOY7kyA6VQ9qp7MQtZPtTPab1Sh5rCo5ZYUZO/MRVrkETQPagFWolr+fGYr0h5IxfIIbT3CinTxvmTdcRIHvH9e8jteBjMO8psivWLSLyWQzxuqtQhpekn+BzuK7o5F8+9SkPWMVjhD8TKYkbEFOE7yGKD8Opyc5DJNBxkoqqxA0aOiOy1buMUVKBDhh0sN2PuKtgsZEj/B46Cc+BDt5b6+PmWSy/44GULXq010d+Ng+5rsTosQvNMCnHKg6meFKGcX1NDYBSaa4dgFHhmbL0RkWAxAIjIsBiARGRYDkIgMiwFIRIbFACQiw2IA+pW8L0gd6urEZC9CmlY6wKIMCKpsry6ZJmPE6T+THUX3aEXSPUWwy5/jVwXq8PFyZJuS3aiWo9rIcjHV/OpJpCo7ywFORVml99DxWtkIU8Vj2m5E14EBGCixtyPVe2BT6c5s2Kbdl+OrUKyMrReL5G/na2MH2pD/7WRR4sTeXYWoF8Ge88QOZNgsQEu9eo+N/5bfzQ1ThpYaXgP2yv3ktK9ZGQjB/bn2WDHt/Ujdi+h6MAADweWCC2bcnjJ4aKe0b9lg8bSjfdQhlaYe5wvlqDkuIurWFGSKULc8nI1NIshd79vVUVOwEVaLCThVh4Lv7FBGRy58PA9ZmTtEfI6kWhk1Wdn3T21qAJ5zqOtiKn9T3YvoejAAA+IIDjQBpsQUdch2RQZS5bBPjQ58ppWobMh+umJQ17H6udyrdyVTu8wVKHiwCLvf0vb5rVi/Vxv7Tt4vQz6mJAe5z1Wr29+uwW6xfvXOZhtyUFKlbZP7VhUhQxuWSt4bo65OhFFxOarfFtsHdVN1DhQ/v1cZht6WXoL8byTB5HKg4ud6vIkAkwl2yzpkPujLMFRE/sEADBDHO6LbGGyFbbsWVA+m4HZzOxzVR9T1q6ywxov9Xy0VLZ9y7G11w7wiHTmPDQzuCSRg49fj0PB6OSr3NMEVI4eXGnyfCfMdaUjurEH583Y4TolWmi1D1CE6rNr9QGyxndj7vHqfCjnwaPYTOV7D2A93L5Ah3i1E5b52UZ9N1OUWr6UYVVe/Z1uL0lfr4XSLgHxYtBbt5SjYwiCkwGMABspL1XCIvLCuzxZtPAty7xatpvYj2HtN164KOzKzUCCCq3ZPJQrsB5Rx7OJu3qhuVojgfCEbhc9Xim5jNuyNorllXo7kLdpm6XgN8v62FJUvlyLv5++pA4SuSAW0+4E0/T4PBS+r96molq1Ta/Kg0aOHuxfIYBaYw7UBXAVzrHdAi27yKztw/7ZSVH8injnGitTtZbA/neEVskT+xwAMmGrsbZItpiSkbciETTSInB9WXb2/xwAr0neWoULeYPutGtQNudWiqhNtXsHZeVn2NwWvQasH3S9Dv3dHiOjiLlRPQ1i37L7aBc64pnE23L1AhrgvH1k2s+jC18HhMiHhqznI8R7dWTpsR/G2+7HpB6XYe8qE2Kt3sCMKDAZgAFXLmxaJNlDyYymiE9sMx//xummPxvaTQhESonX4qR1lPy/Cjhe0kYwHMSHqTm1R1GeJkhHphvuCWiKZwtXB2xX3xKlDufe4RDdV3g/EjabfaSccrk6ihSb38Ukair4tgtnTjJr/8xMUv9kEt8mKtEdHaOGJICz7WMZxLCxfUIuIAoEBGEjvl6NedDfNMSKwmhyoHGZsuoQYLbjcPeg0L0b6V28fpgUoQvTvSpC7JR3Z/1CETbIF1+pA1R51q2RakY6KnZlIfSAfZQ/bRPS40fBOGfCHA2h2m2D9chZSEuRzRWHxxvuRtTEB4qX5JPnxTCTHio74vioUvy9asrvEz3VK/Fw2/R7G+Sj/7W6UFWv313i8DGVfEtHobsaBPyhVqMTPp2zXptyt3jfkJJp8DMCAcqJ0v4wZGUalA11UL/bXa9AkWnKWu7NRsC0NUcebh2kBOuE4GIe0bbnIvFu9d0X5E4VXb00puY5+ANedoo5H0pAUJ1p8vy5C4Utiw/vF2PEvtWj2WLDxgVwRPKKOtXFwnfIx/jY8idwvizC71IDqXXoHvh4F/y5bqmbYvi0v+HairScK1ju1+2t8WbRoO5pQ+y87lMC8KjZJ3a5Nm/6MJ0roxuKAqNOcvAwm7dZmVKdkYdjzs/IymG2iJeUoQ1reyFfd0czFAVFHxhYgERkWA5CIDItdYKIZjl3gkbEFSESGxQAkIsNiABKRYTEAiciwGIBEZFgMQCIyLAYgERkWA5CIDIsBSESGxQAkmuH6+z3aEg01Y74KFxoUjuw7dkCs4eKVs2gJPYzuKxcRHham7UlkPDL8EhIS8PvqarhcXfwq3BAzIACVf5UQNIWEI8QUrISg/E81rX+8aenOdeu0JeD9Dz7Qlsg/tIATM3VpFvr6etHb26ssM/8Gm/YBKMnw0+f6MgXOXcnJuOuuZLz3Xj3eq6/XSikQZItPb/Wx9XetGRKAyr/KMgVe8vr1SE5ej/r6fajft08rpcBi6284M+IkiHxj1b9ufIeJBlNbgAy/4c2os8B6EHIK7HT17xDfjykwae8FDYuXwRCRYTEAiciwGIBEZFgMQCIyLAYgERkWA5CIDIsBSESGxQAkIsNiABKRYTEAiciwGIBEZFgMQCIyLAYgERkWA5CIDIsBSJNi6DBMI5URTSUMQLou3gEXHR2FxYsXIzY2FpcvX0acmN8m1mW5935EU8WMGBKf/E8PMjlfuXIlli5dgsjwcJy/cBE9Ivx6+3oRGhKKsPAwzI2JQbcoO3bsOA4dOjToHi5EgcQApHHTW3Lx8QuxzmZDV3c3WltacK6tXdvjWnFxsWL/eMyOjMQHDgdaWlp5EysKOAYg+Uxv9QUFBSExMQmJK5ej8fBhnDl9Rin3xfyb5yNxxQo0HjqCxsYG9Pf3K+UMQgoEBiD5TAagHn5Ll96Gj/Z/hO5Ll7StvouMiMAda+4QXeJPr4YgA5ACgSdByCcD3d54JK5aMWr4XQkzwxO/RpkPRz5OPl7WI+vT6ybyNwYgjUkPKNn6s9nWiu7roVFbfv03LcOlb5Yq85HIx8t6ZH2yXoYgBQIDkHwiw2nFyhXo7uoa1zG/0ch6ZH2yXoYfBQIDkEYlg0mdgrB0yRKcaGnRtkyOFlGfrFfWrz8Xkb8wAGlMMpSio82ICA9H2yiXukyEvHRG1ivrZ/iRvzEAaUwymObFzUNHR4dWMrk6Oi4gTtTPACR/C46OinpcWyYaRAaSOgVh0a3xCBLztrY2bStwJfoW9N+0VJl7T/LkhydhPYLPNQEhpmu2ixoxq8el1QLExMSIJ5PHBM+KNV4OQ/7D6wBpRHoABgcHY+2aNQgJDVG+zqZzr38I7uSHtDXfmepfhGnfi9oalK/R9fX24cP9++HxePgNEfIbBiCNyDsAV39hNcyRs3H4yBFtq9YCFNNQ/fOWoSdlG8LqdiHo3FGtdEDQxVOYJSbdiuXL0dXdhY8//oQBSH7FY4DkE3m5SkRkhLamkiEW3LL/mkkPPTkfbrt3+EkRkeFK/UT+xgAkn5w/fx5z5LG6G2BOzBy0i/qJ/I0BSGOSvdGLFztxuacH8+JitdLJIUeJkfXK+tnrJX9jANKIBo7FqfPPPz+B+EXx6sZJskjUJ+v1fh51mejGYwDSmGQgyRFbjh49CrPZrAxpNRlkPbI+WS9HhKFAYADSmNQAvIK+vj40NDQiceVKZUirkcizvPJSFzkfiXy8rEfWJ+uV9TMAyd94GQyNSV4KI0dsCQkJQWhoKJISE7Fg4QLs/3D/hMcDXLN2DU62nkRDYyN6e3u1EGQrkPyL3wShMckA1JaUf9vbzyM8PBxJSYnovnwJXeO4hEV2e9fccQdOtLSi8eAhEXy98Hhk8KkjQxP5E1uA5BO9Fai3BENCQrFo0UKsWrUKLpcLJ06cGHWgBHn2OH7RIuWY38GDB8X+rUr46S0/tv4oEBiA5BO9FTg4BNVpmXUZ4hcsgMlkQseFC8otMWW3VnaXw8MjMCcmGm63Gy0nT+Jo01El9PRJDz+JAUj+xgAkn3mHoBwgISQkWPmaXFBQsLIs7/87d85cWEUgWiwWnHQ60SQCr6PjvHKdX1+fR4SdR/m6m1yW3V6GHwUSzwKTz/SQUrur/UoLTrb0envdSgtPHhs8dvxTtLW3Ky2/djE/LtZludwu99NPeDD8aCpgANK4yLCSk951VVtzfUrA9fT0iHmPEnIejxqOcl0tdyv7yf31x+p1EQUKA5AmZLgg9J5GKmPw0VTCAKQJ04NMn/TQ00Nu6Lr3RDQVMADpug0Nt9EmoqmEAUhEhsUAJCLDYgASkWExAInIsBiARGRYDEAiMiwGIBEZFgOQiAyLAUhEhsUApOu2/a9/hO9/73tYunSJVjKYLJfb5X5r167RSokCjwFI102O9RcWZsLX09Kw8e67lbEBJTmX67Jcbpf7tbS0KNuIpgIOiErXTYbbpk2bsHSJ2gLs6urG7NmRV+fSsePHUVNTg54et7JONBUwAGnSJK5ahZSUu2EyhWklUMYDrKt7B40HD2olRFMHA5AmVXR0NL7x9TTMmzcPrS2t2FNbK7q+F7WtRFPLjArAiAgzgoI47NJUsNxqxZGmJm2NAkXeva+vz43u7vHfv9kIZkQAyryLnB2FX/7mIORNdz4/9gnq3vwlTrd+ivCwge4YkREtW7YEb9h/o9y+lAabEQEoRxyed3M8yn71R60E+OenvoujBz/Q1oiMS56cOnrsKM6cOauVkG7aXwbD3i6Rb/hZudYMuA5QfVd53I9oLPyMDMULoYnIsBiARGRYDEAiMiwGIBEZ1rS/DEa/32zc/IX411f+pJVO7DKYkDk3IWjuTdra5PF0nIPn/Bltjci/9MtgTp8+g1mzZmmlJDEANcHRsbjlr5/BrLAIrWRyOX++nSFIAcEAHBm7wJpgc4y2dGMEz5mnLRHRVMEAJCLDYgASkWExAMcQGjQL5tAgn6ewYB5jIZoueBJEY1pwG256uOCakyBfXhiNrybMEX8pxg42+Yv86FwXfnXknFrg5cwLhXB/2qitEfkPT4KMjC3AMcSGh2D5nAjEm024OSJ0xMkSGYoVcyOwYLZJeyQRTXUMwDFc7utHR08fnnGcxEP/dRQPvT389KO9n+L85T64evu1R06EFek7K1BdU4e6Om2qLkOOtnXSPVahPEfFY9o6kcEwAMew77QL//SRE592XkZSbCQ2L4oR0xyvKQbr55vR038Fz+534j8+O689cvzSni5G7uYEmNobsHdPLWr31KPJDZi17UQ0uRiAYzgnWnX7z3VD5BvuXhCFby2bh5zVt1yd/mr5Tbjn1jmYHRKE/W1d+NzVoz1y/JLiY4FLDajKyEHBU4UofGoHstNzUKxtJ6LJxQD0UXDQLMyPCMXJLjc63R6l7JLoHp90uTE3PBShQdf/q1SyM8KKjTtTYVGLBtuQg5Kq6qvd4+qqImQsVDdllMjyapTkPYmKt7Tu82/LkbtB3S4lf78Eu/Vtb+1G0c2jHa/MR4Xcr/JJ5D6nPefb1Sjfnozk7eWoflutp8brNUC86kFd+Bp1f8XCVKWeGu1xdTW7UbhZbrAis3j31frkc5R9X5bbkP304MMB1c/lQqtN1JeOgl96/S6eK0J5tViuLkGGtovl3gJU/LZGq7dm8OOJBAagj+S5swjRyksU3eD6U51wiRD88KwLN882iQAMwWScXCt7wY4mlwkJmwuwu7oCRdu8gnBhBkoey4AtthN7ny9E6RsNwC3JyH4ixysszbClLkbTy6Wo3OeEO8aK9Ie1I4j3FGHHVhssnmbsFdvLa9ux/PZhY3awW+9Ccocd5S/Xw+kxw/qXomX6JaDuhXLUfu6GSbyG9P9lU3ZNfqwIOaILj6N2lD5Vjr1nTbBu2YGie4DUbT9E+goz2t4tFy1b8dgW8Wrll2+2iVbuevE6lMeUwv6RqHOOrM0KazzgeLVU2X9vqxvmFenIeUy+ZgtyxM+dusSE9k9EyD5bCUfo7bB6HyvYkI+iH6YiAU2wP1uI8nfbYBKP3/F0mrYDEQNw3EJES/Ari2KUS17W3xKlnCWeNO+WIvu7hah8pxmuiAQk31eA8nKt1bI1DTYRGE2/z0PBy7XiQ52D6ibAZE1GpvJgVdOeHSh8WQRWvh0H5D1wLFalRZSeejti4UbDq1koeN6OymdyUPh/ncpjRtXuQGV+OSqf34Hao27RFBbP8btsFL9ciUL7AciniJprFf+mI2ODPH5Zj7IfiCDbU4mCFx1oF896e2q6UpXO1Swe+508FL+rFWjc5+pRmie6/5VyrQo7MtXXWivr0p4r7uaN4t9MJFtF67V1Lwq3FaPyjXIUfMeOBq8bn6V/MwUJpnbU/2uO+GNRi8ofl8PRDsQmpYpXSqRiAPrIc+UK2i/34ZToAp/p7kVXrwdnxVxf98iDhJOhtRblP85CWmYhqg67YLamI3ub6OIujFM2W7fsvtrty5C5M4gLnSeHDzVrrGweOfHZS+q65LgsAm0srjZUa4udyv5u9HSq63jDiTZtUbbY4mSLLjYZ+drrq9uZLOJPCDKhdlcFao+7YLk7G0XPyS5rBpLktl3lqHI4YVqWjvyS3aJLnYtUpSUnz4iXoeI10W1+S3Rjt9kGTgZtsUD+Nlynj8Chlgid6FGPTCis8+XesaJVqr2WugIkyxcjApwXKpGOATiGuLAQrBbdXtnke/1YG3Z9fOqaqbzxNC64+5A0NwLxk3UdoAjCsv8+orR6LLelo6pVRo1btL7kyRHvqQx25QGja+5Q2k+w3KeuS2mxUdrSZGhC2wUxOyNagINeXyGKKveKn8cuWn1pSPluMeyNIthFdzRb6TqL/fPux6bMPJS9I8JbdKmzfpQJ208Kkbs5CaZP7Sj7uei+v+BQfheKfe0i7kQXel6C1yECC6K8rmFvOiP3Fi3AXYNfS+EzlRCvhkjBABzDxoVRyF1jwW3R4Th2sQeftHdfMx08fwnhwUF41LYQ31yqttTGLwNFVXZUlDyJgp0FYipCxQOy1ePCkXoRcX84gGa3CdYvZyElQQZXFBZvvB9ZG+VRrrFV7W8W8WmGLVN0Fx/JRPbOcmSvVdpnk8SO+iYROvNtuP9/2tRgEstpD21BsmjhZRRXoPzRTKQm9KCtTW9CCo+WYXdxNtKTRAf9rEu8RlVCjBbO7h50mhcj/au3D7QAW6vR0Crmt25CyT/mIvOBXJT8LA1W0brT2evlH49Y2L61Bbb5ssQC2z3Z2LLOIdrBRCoG4BhmhwQrx/n+Zu0ClH956YjTz/+fxcp+USavT+G4tKGt0wTL7SlI3ZwqpmTlhEX9K4XIe01sfr8YO/6lFs0eCzaKD3zBTvHBXxsH1ylf4k94qRBle5rhMluR+kA2Mr7QiZp9zdrGyVH1t6Lb7miDKTFNBKwI8Yc3YbnHCfkssnVo+Vq2Eu7ZG6LgdFSh9EnRgT3bg6i1mcgV5bl/mQAcFy3fpythf70GTfIxostcsC0NUcfFa1efRnCgcFcVHKfE9jtFS1I8T1xDNRxyB9ENVkL0tTwUvuJAW2QS0h6Rf1CysWmpG87J/ZFpmuN3gTUjfRf4L26dgz+Pj0GQD2d55S/yYPslvHDw2oFP+V3gG2zDk7A/nYLY49VI+Q6vnPTG7wKPjAGoGSkAw0TyhYf43lDu7b+C7r5rvw7HAJxcskudhgPYW+9Az6JN2CRazAlmNxpeykLOC+zkemMAjoxd4DHIr7hdcHt8noYLP5p8sksdtzYNmdtFl3pLMixwwvFaEQoZfjQODECalmqfykLaphSkpKjTprT7kberlic4aFwYgERkWAxAjcclL2K7ceStMYloauFJEC+8LzDNRDwJMjIGINEMxwAcGbvARGRYDEAiMiwGIBEZFgOQiAyLAUhEhsUAJCLDmrGXwfzbru1oP8svRgWcftXFdP6/TP4M0/j1z507F3/80x95Gcww2AKkG0sPDvm5G880lXiH33Cvdbjpet2IOukavBCaaIbjhdAjYwuQiAyLAUhEhsUAJCLDYgASkWExAInIsBiARGRYDEAiMiwGINEUY/1/H8cv/v0/8XbNfw9M//ErPPvoN7FA24cmBwOQaCpJewb/+KAFB/6/7+DPN315YPqbX6Hd9l0U71in7UiTgQFINIVsSV2Ny398ArtqTmolwIJN38WO+5bj8L+9D5PtG0j+q7/B3+/4Lr6xUtuBJowBSDSFdPa6tSXVgr/6J/zi0S/hJtdJNJnCEO7uweeHjuCkaR0yf/5LbIvXdqQJYQASTSE1/7QHXXc9i18UiBbeugXI/IvbcOSFf8YnuBN531+BT996CSc/+D2eL/wect8zY/Nfb9IeSRPBACSaSlr+Gd/5m5fwgTsByf/jLoSbLqPn5q/CFtuGume+h+3/NtA1lkyh0doSTQQDkGiqOSRaeEU7sfOfXsfvHb1YlwzU/tvTeH7QccEf4Sd/Fo4Dta9rJTQRDECiKeyDokfxj/VmZPzc65IYMb3wvdvhfOlv8Wi1tiNNCMcDJJrhOB7gyNgCJCLDYgASkWExAInIsBiARGRYDEAiMiwGIBEZFgOQaIbr7/doSzTUjLkOMGJ2DF767UHlzf782Ceoe/OXON36KcLDwrQ9iYxHfh6WL7fi9TfscLm6eB3gEDMgAJV/1RCMMCMo6Ar6ZeHVn2pa/3jT0p3rBsase/8DXozuX1rAiZm6NAt9fb3o7e1Vlpl/g037AJRk+OlzfZkC567kZNx1VzLee68e79XXa6UUCLLFp7f62Pq71gwJQOVfZZkCL3n9eiQnr0d9/T7U79unlVJgsfU3nBlxEkS+sepfN77DRIOpLUCG3/Bm1FlgPQg5BXa6+neI78cUmLT3gobFy2CIyLAYgERkWAxAIjIsBiARGRYDkIgMiwFIRIbFACQiw2IAEpFhMQCJyLAYgERkWAxAIjIsBiARGRYDkIgMiwFIRIbFAKRJMXQYppHKiKYSBiBdF++Ai46OwuLFixEbG4vLly8jTsxvE+uy3Hs/oqliRgyJT/6nB5mcr1y5EkuXLkFkeDjOX7iIHhF+vX29CA0JRVh4GObGxKBblB07dhyHDh0adA8XokBiANK46S25+PiFWGezoau7G60tLTjX1q7tca24uFixfzxmR0biA4cDLS2tvIkVBRwDkHymt/qCgoKQmJiExJXL0Xj4MM6cPqOU+2L+zfORuGIFGg8dQWNjA/r7+5VyBiEFAgOQfCYDUA+/pUtvw0f7P0L3pUvaVt9FRkTgjjV3iC7xp1dDkAFIgcCTIOSTgW5vPBJXrRg1/K5E3wJ38kPKfDjycfLxsh5Zn143kb8xAGlMekDJ1p/NtlZ0Xw+N2vLrlwG4/iFlPhL5eFmPrE/WyxCkQGAAkk9kOK1YuQLdXV3jOuY3GlmPrE/Wy/CjQGAA0qhkMKlTEJYuWYITLS3alsnRIuqT9cr69eci8hcGII1JhlJ0tBkR4eFoG+VSl4mQl87IemX9DD/yNwYgjUkG07y4eejo6NBKJldHxwXEifoZgORvwdFRUY9ry0SDyEBSpyAsujUeQWLe1tambVXP9vbftFSZe0/9Ny2DJ2E9gs81ASGma7aLGjGrx6XVAsTExIgnk8cEz4o1Xg5D/sPrAGlEegAGBwdj7Zo1CAkNUb7OppNneuXlLuNlqn8Rpn0vamtQvkbX19uHD/fvh8fj4TdEyG8YgDQi7wBc/YXVMEfOxuEjR7StWgtQTEP1z1uGnpRtCKvbhaBzR7XSAUEXT2GWmHQrli9HV3cXPv74EwYg+RWPAZJP5OUqEZER2ppKhlhwy/5rJj305Hy47d7hJ0VEhiv1E/kbA5B8cv78ecyRx+pugDkxc9Au6ifyNwYgjUn2Ri9e7MTlnh7Mi4vVSieHHCVG1ivrZ6+X/I0BSCMaOBanzj///ATiF8WrGyfJIlGfrNf7edRlohuPAUhjkoEkR2w5evQozGazMqTVZJD1yPpkvRwRhgKBAUhjUgPwCvr6+tDQ0IjElSuVIa1GIs/yyktd5Hwk8vGyHlmfrFfWzwAkf+NlMDQmeSmMHLElJCQEoaGhSEpMxIKFC7D/w/0THg9wzdo1ONl6Eg2Njejt7dVCkK1A8i9+E4TGJANQW1L+bW8/j/DwcCQlJaL78iV0jeMSFtntXXPHHTjR0orGg4dE8PXC45HBp44MTeRPbAGST/RWoN4SDAkJxaJFC7Fq1Sq4XC6cOHFi1IES5Nnj+EWLlGN+Bw8eFPu3KuGnt/zY+qNAYACST/RW4OAQVKdl1mWIX7AAJpMJHRcuKLfElN1a2V0OD4/AnJhouN1utJw8iaNNR5XQ0yc9/CQGIPkbA5B85h2CcoCEkJBg5WtyQUHByrK8/+/cOXNhFYFosVhw0ulEkwi8jo7zynV+fX0eEXYe5etucll2exl+FEg8C0w+00NK7a72Ky042dLr7XUrLTx5bPDY8U/R1t6utPzaxfy4WJflcrvcTz/hwfCjqYABSOMiw0pOetdVbc31KQHX09Mj5j1KyHk8ajjKdbXcrewn99cfq9dFFCgMQJqQ4YLQexqpjMFHUwkDkCZMDzJ90kNPD7mh694T0VTAAKTrNjTcRpuIphIGIBEZFgOQiAyLAUhEhsUAJCLDYgASkWExAInIsBiARGRYDEAiMiwGIBEZFgOQrtv2v/4Rvv+972Hp0iVayWCyXG6X+61du0YrJQo8BiBdNznWX1iYCV9PS8PGu+9WxgaU5Fyuy3K5Xe7X0tKibCOaCjggKl03GW6bNm3C0iVqC7CrqxuzZ0denUvHjh9HTU0NenrcyjrRVMAApEmTuGoVUlLuhskUppVAGQ+wru4dNB48qJUQTR0MQJpU0dHR+MbX0zBv3jy0trRiT22t6Ppe1LYSTS0zKgCDTOEIV44/MdMDbbnViiNNTdoaBYq8e19fnxvd3eO/f7MRzIgAlMPMeUJDcTorB7PEytzO81h96jNEd3chPGygO0ZkRMuWLcEb9t8oty+lwWZEAMoRh/tmR+Hs1mytBLDWv42otjPaGpFxyZNTR48dxZkzZ7US0k37y2A4yDCRb/hZudYMuA5QfVc53DrRWPgZGYoXQhORYTEAiciwGIBEZFgMQCIyLAYgERnWtL8OUL/hdm+kGee+/YhWOrHrAB3bHtWWJl9SRTnCLnZoa0T+o18HePr0GcyaNUsrJYktQD9xR0VpS0Q0VTAAiciwGIBEZFgMQCIyLAbgOM0xmfCgdQn+fu1qZS7XiWh6YgCOw70Ji7D/3q8hL2klml1dylyuy3Iimn4YgD5aEzsXpevXYc2v/wMvNh1Xpl83tyjrSrnYft0eq0BdXd2gqea3FSi416LtQESTiQHoo1zR2pOh95Do9soLJ1NumY/zbreyLsvl9snS3liL2j1i2tcMd0wCUn9YiBxtGxFNHgagj75kuRmPf/gx9refx0si8OpOncGzDYeUdVkut0+WzuZCFD4lpvwsVDhcgMkC633aRiKaNAxAH3WI1t7QEx76upzL7TdCVLh8DjfcF9R1y70FqPhtjdpFfrsG1c/lIlndBOuDRdhdPdB9rv5Xtd2YXynXRVdabn9L2z6kay3rLX+t+upj66p3o+T7es35qJBllU8iZ5dd3S6ee/fTGdBrGOm5IV5dTsluVL+tbRP1Fm1ll56mBgagj/a3iZbe2tVYbJ6tHPN7fO0XlLkMPzmX2ydLVEIBCnaKqbgC6YkmuA/XoHSP2LAhH0U/TEUCmmB/thDl77bBtCIdO55OExtzsOPBZBFI6rbSNxxwB5uV+lQJ2Pj1ODS8Xo7KPU1wya71I/nIkJu0eq2Rbah/oxylL9ehWdRk21qAEu+W5613YWNvHUqfr0aTywTLhvuRu1luGOm5LcgoKUCGLQ6d75aj8Fk7GjwWJD8suvQL5eOIAosB6KPcfR8o3dw/OE/jM1eX0u399ectyvqbLSfx2mfN+OXdd6FEhOH1ik1MRepmMa2PQ9ubxcj5bhmcojz9mylIMLWjXrSuSt+oReWPy+FoF/snpSJdfaiqV+zzbB5ynqjUCqR2OF7IRuHzlSh/Khv2RtFiNS9H8ha9XjcaXs3CjmcrYX/+J8jaVS8eYcbtfz5wnxW0O1CZVwr7y8Uo2CdfUSwsNnXTVYOeOxNpNhGETdXI+3Elat8oRY4IX5isSN6q7k4USAxAH8ku7kN738OLGzdcvQ5we+IKpfUXERKML86bB/k187mTcF1g85spSPmuCLcLZiR8JQPpG9Ry63zZqopF8mN6V7MAybGiKFhkCspQ/qoDzmAr0h8tEV3d3chN9W4Bdoow1RaFzstal1081hor93Pis5fUIsWbbeIRol6zfAKNqw3V2qLT493lH+G577MgTm62pmO31jWuu8+qPAIh6owokBiA4yBPeHzpP2qQXlundIGf2P8JHnpHhGLTcaVFKCe5PikOVyLvp3VwmhKQtv1J5Thf0xl5W0PRwtqlnSTRp2cqsVdsqf9FHu7/i/uR9wvxuGDR1dyaJ9pgOhOi7tQWRdfUEiVDTz222NQu67Vg8YPKRtU9cZDDN7jONavrYxj2uV9zok1sc4sW4KDXK6Yyu/o4okBiAI7DVxbcgm8silcuefnPFiceWrZEuQhaXhIjya7xpHr3J7C/L8LplhTk7kyGvf4IXKIFaPvWFtiUp7TAdk82tqwTrS/ko+xXRcjekoTYnna4rjknI0Lp70qQuyUd2f9QhE2yIdbqQNUewF57QMSqCUnfqkDR9kykP1KA8h8ki2dqx4E9VerDRzXSc9fiwHG36PGmIGvjYiVQoxI24v6tG5FwWN2DKJAYgOPwP+bfpFz3lzQ3BjdHhiNRzL+3Yhm+eJPS0bshqn5uR8MlEV9fykH+p3kofMWBtsgkpImQKtiZjU1L3XAqjTQnesw2ZG4X5dvTkeBpRu0vCjFwFNAJx8E4pG3LRebdCTCdqkf5E4VwyE1v7kD+s7VolicotmQj9wF5okU8/tl87PDqNo9spOd2oPjHZag9Ll7/hkwR4gXI3boOcV2n0KQ9kiiQOCCqF18HRA0JmoVvJtyKqk996x5KVnsVolpPaGv+JS+DSbu1GdUpWSjWysg4OCDqyNgCnIC+/ivjCj8impoYgERkWAxAAyjOTEEKu79E12AAEpFhMQD9xNQpLysmoqmEZ4G99ETPuSF3b5Phx1tiUqDwLPDIGIBEMxwDcGTsAhORYTEAiciwGIBEZFgMQCIyLAYgERkWA5Bohuvv92hLNNSMuQymLzQMZx/MwSyxPLfzPFaf+gzR3V0IDwvT9iQyHhl+y5db8fobdrhcXbwMZogZEIDKv0oIBpnCER4SLNdkkWZa/3hE46QFnJipS7PQ19eL3t5eZZn5N9i0D0BJhp8+15eJSHzAReLprT62/q41QwJQ+VdZJqLhsPU3nBlxEkS+sepfN77DRIOpLUCG3/BmRAuQiGgieBkMERkWA5CIDIsBSJNCP9s42kQ01fAYIF0XPdjkPCrKjNjYOJjNZoSEBMPT54HL5UJbexs6O12DLlcimgoYgDQh3sG3cuVKLF26BJHh4Th/4SIuX7qEPk8fQoJDEB4RjrkxMei+fBnHjh3HoUOHGIQ0ZTAAadxk6MkpPn4h1tls6OruRmtLC861tWt7XCsuLlbsH4/ZkZH4wOFAS0urEoAMQQokBiD5TG/1BQUFITExCYkrl6Px8GGcOe37rQfm3zwfiStWoPHQETQ2NqC/v18pZxBSIDAAyWcyAPXwW7r0Nny0/yN0i+7ueEVGROCONXeILvGnV0OQAUiBwLPA5JOBbm88EletGDX8rkTfAnfyQ8p8OPJx8vGyHlmfXjeRvzEAaUx6QMnWn822VnRfD43a8uuXAbj+IWU+Evl4WY+sT9bLEKRAYACST2Q4rVi5At1dXeM65jcaWY+sT9bL8KNAYADSqGQwqVOQcn/ZEy0t2pbJ0SLqk/XK+vXnIvIXBiCNSYZSdLQZEeHhaBvlUpeJkJfOyHpl/Qw/8jcGII1JBtO8uHno6OjQSiZXR8cFxIn6GYDkb8HRUVGPa8tEg8hAUqcgLLo1HkFi3tbWpm1Vz/b237RUmXtP/TctgydhPYLPNQEhpmu2ixoxq8el1QLExMSIJ5PHBM+KNV4OQ/7D6wBpRHoABgcHY+2aNQgJDVG+zqaTZ3rl5S7jZap/EaZ9L2prUL5G19fbhw/374fH4+E3RMhvGIA0Iu8AXP2F1TBHzsbhI0e0rVoLUExD9c9bhp6UbQir24Wgc0e10gFBF09hlph0K5YvR1d3Fz7++BMGIPkVjwGST+TlKhGREdqaSoZYcMv+ayY99OR8uO3e4SdFRIYr9RP5GwOQfHL+/HnMkcfqboA5MXPQLuon8jcGII1J9kYvXuzE5Z4ezIuL1UonhxwlRtYr62evl/yNAUgjGjgWp84///wE4hfFqxsnySJRn6zX+3nUZaIbjwFIY5KBJEdsOXr0qDLasxzSajLIemR9sl6OCEOBwACkMakBeAV9fX1oaGhE4sqVypBWI5FneeWlLnI+Evl4WY+sT9Yr62cAkr/xMhgak7wURo7YEhISgtDQUCQlJmLBwgXY/+H+CY8HuGbtGpxsPYmGxkb09vZqIchWIPkXvwlCY5IBqC0p/7a3n0d4eDiSkhLRffkSusZxCYvs9q654w6caGlF48FDIvh64fHI4FNHhibyJ7YAySd6K1BvCYaEhGLRooVYtWqVcue3EydOjDpQgjx7HL9okXLM7+DBg2L/ViX89JYfW38UCAxA8oneChwcguq0zLoM8QsWwGQyoePCBVzqHrgrXERkJObERMPtdqPl5EkcbTqqhJ4+6eEnMQDJ3xiA5DPvEJQDJMh7/8qvyQUFBSvL0dFRmDtnLiJnz1bK+zwe5RseHR3nlev8+vo8Iuw8ytfd5LLs9jL8KJAYgDQug0NwoFusBqG8qEB+f1jZRaHmmnoZjQw+vcUnA4/hR4HGAKQJkeE32qST4TbaRBRIDECaMD3ovOfe4afzDruhc6JA4oXQNGF6sOmT3s3Vu7rey0P3JZoKGIB03YaGm5yGCz05EU0lDEAiMiwGIBEZFgOQiAyLAUhEhsUAJCLDYgASkWExAInIsBiARGRYDEAiMiwGIBEZFgOQiAyLAUhEhsUAJCLDYgASkWExAInIsBiARGRYDEAiMiwGIBEZFgOQiAyLAUhEhsUAJCLDYgASkWExAInIsBiARGRYDEAiMiwGIBEZFgOQiAyLAUhEhsUAJCLDYgASkWExAInIsBiARGRYDEAiMiwGIBEZFgOQiAyLAUhEBgX8/3lgbpciASBFAAAAAElFTkSuQmCC;" parent="1" vertex="1">
                    <mxGeometry x="251" y="76" width="320" height="528" as="geometry"/>
                </mxCell>
            </root>
        </mxGraphModel>
    </diagram>
</mxfile>